<svg xmlns="http://www.w3.org/2000/svg"  viewBox="0 0 60 60" width="60px" height="60px"><path fill="#3d4b89" d="M1,7V45c0,3.21,8.86,5.84,20,5.99L43,33V7Z"/><ellipse cx="22" cy="7" fill="#5663af" rx="21" ry="6"/><path fill="#5663af" d="M1,32.993c0,3.314,9.4,6,21,6s21-2.686,21-6V20c0,3.314-9.4,6-21,6S1,23.314,1,20Z"/><rect width="38" height="26" x="21" y="33" fill="#aac7c8" rx="2"/><path fill="#373737" d="M57,32H52a1,1,0,0,0,0,2h5a1,1,0,0,1,1,1V57a1,1,0,0,1-1,1H23a1,1,0,0,1-1-1V35a1,1,0,0,1,1-1H48a1,1,0,0,0,0-2H44V7c0-4.6-11.067-7-22-7S0,2.4,0,7V45c0,4.265,9.9,6.693,20,6.97V57a3,3,0,0,0,3,3H57a3,3,0,0,0,3-3V35A3,3,0,0,0,57,32ZM22,2C34.209,2,42,4.961,42,7s-7.791,5-20,5S2,9.039,2,7,9.791,2,22,2ZM2,10.1C5.674,12.67,13.872,14,22,14s16.326-1.33,20-3.9V20c0,2.039-7.791,5-20,5S2,22.039,2,20Zm0,13C5.674,25.67,13.872,27,22,27s16.326-1.33,20-3.9V32H23a3,3,0,0,0-3,3v2.965C8.828,37.66,2,34.92,2,33ZM2,45V36.116c3.443,2.407,10.817,3.664,18,3.857v9.989C8.828,49.656,2,46.918,2,45Z"/><path fill="#373737" d="M44,43a4,4,0,0,0-8,0v6a4,4,0,0,0,4,4,3.947,3.947,0,0,0,2.019-.567l.274.274a1,1,0,0,0,1.414-1.414l-.274-.274A3.947,3.947,0,0,0,44,49Zm-2.293,6.293a1,1,0,0,0-1.414,1.414l.218.218A1.96,1.96,0,0,1,40,51a2,2,0,0,1-2-2V43a2,2,0,0,1,4,0v6a1.96,1.96,0,0,1-.075.511Z"/><path fill="#373737" d="M30,41a2,2,0,0,1,2,2,1,1,0,0,0,2,0,4,4,0,1,0-4,4,2,2,0,1,1-2,2,1,1,0,0,0-2,0,4,4,0,1,0,4-4,2,2,0,0,1,0-4Z"/><path fill="#373737" d="M47,39a1,1,0,0,0-1,1V52a1,1,0,0,0,1,1h6a1,1,0,0,0,0-2H48V40A1,1,0,0,0,47,39Z"/></svg>